<svg width="128" height="128" viewBox="0 0 128 128" fill="none" xmlns="http://www.w3.org/2000/svg">
<path d="M86.94 30.66C89.5682 30.6961 92.1623 31.261 94.5676 32.321C96.9728 33.381 99.14 34.9145 100.94 36.83C100.94 36.83 108.58 35.33 112.8 32.36C112.8 32.36 111.74 38.24 104.71 42.74H104.77C105.31 42.74 109.25 42.64 115.45 39.74C115.45 39.74 114.26 43.13 106.15 49.58C106.64 64.84 99.09 93.05 71.15 103.09C65.0138 105.335 58.5339 106.495 52 106.52C41.5317 106.568 31.2778 103.554 22.5 97.85C24 98 25.35 98 26.7 98C43.22 98 51.22 89.52 50.78 89.52H50.17C36.17 89.52 32.76 76.12 32.76 76.12C33.8813 76.7978 35.1821 77.1187 36.49 77.04C38.1805 77.0048 39.86 76.7596 41.49 76.31C25.69 72.57 26.28 57.41 26.28 57.41C28.4152 58.835 30.9135 59.6192 33.48 59.67C33.9022 59.6747 34.3239 59.6413 34.74 59.57C20.31 48.15 29 34.52 29 34.52C45.26 53.39 65.25 54.06 68 54.06H68.33C66.85 45.2 70.5 36.69 80.33 32.06C82.3806 31.1183 84.6136 30.6403 86.87 30.66H86.94ZM122 18L109.07 27.08C107.095 28.2637 104.96 29.1563 102.73 29.73C98.2043 26.1961 92.6417 24.2493 86.9 24.19V24.19C83.6902 24.1603 80.5138 24.8434 77.6 26.19C68.42 30.5 62.84 37.94 61.73 46.87C50.8622 44.6286 41.0699 38.7828 33.94 30.28L28.24 23.67L23.54 31C20.51 35.9914 19.3082 41.8804 20.14 47.66L19.77 57.19C19.687 63.2397 21.6971 69.1323 25.46 73.87L26.46 77.77C27.8943 82.8063 30.8065 87.2965 34.82 90.66C32.1498 91.2442 29.4233 91.5326 26.69 91.52C25.5 91.52 24.27 91.47 23.03 91.37L0.0999985 89.46L18.65 103.09C28.5493 109.603 40.1504 113.05 52 113C59.2929 112.98 66.527 111.695 73.38 109.2C87.1276 104.294 98.4722 94.3055 105.08 81.29C109.651 72.4019 112.234 62.6259 112.65 52.64C119.28 46.93 121.1 43.29 121.59 41.9L126.71 27.33L119.71 30.59L122 18Z" fill="white"/>
</svg>
