<svg width="24" height="24" viewBox="0 0 24 24" fill="none" xmlns="http://www.w3.org/2000/svg">
<g clip-path="url(#clip0_3_17)">
<path d="M13.287 11.988C13.287 15.4007 10.5392 18.1673 7.14983 18.1673C3.76043 18.1673 1.01242 15.4007 1.01242 11.988C1.01242 8.57523 3.76022 5.80846 7.14983 5.80846C10.5394 5.80846 13.287 8.57523 13.287 11.988Z" fill="white"/>
<path d="M20.0197 11.988C20.0197 15.2004 18.6458 17.8055 16.951 17.8055C15.2562 17.8055 13.8823 15.2004 13.8823 11.988C13.8823 8.77561 15.256 6.17043 16.9508 6.17043C18.6456 6.17043 20.0195 8.77478 20.0195 11.988" fill="white"/>
<path d="M22.7736 11.988C22.7736 14.8655 22.2905 17.1996 21.6944 17.1996C21.0982 17.1996 20.6153 14.8661 20.6153 11.988C20.6153 9.10986 21.0984 6.77637 21.6944 6.77637C22.2903 6.77637 22.7736 9.10965 22.7736 11.988Z" fill="white"/>
</g>
<defs>
<clipPath id="clip0_3_17">
<rect width="24" height="24" fill="white"/>
</clipPath>
</defs>
</svg>
