<svg width="128" height="128" viewBox="0 0 128 128" fill="none" xmlns="http://www.w3.org/2000/svg">
<path d="M64 16C73.3946 16 82.5782 18.7858 90.3896 24.0052C98.2009 29.2246 104.289 36.643 107.884 45.3225C111.479 54.002 112.42 63.5527 110.587 72.7668C108.754 81.9809 104.231 90.4446 97.5876 97.0876C90.9446 103.731 82.4809 108.255 73.2668 110.087C64.0527 111.92 54.502 110.979 45.8225 107.384C37.143 103.789 29.7246 97.7009 24.5052 89.8896C19.2858 82.0783 16.5 72.8946 16.5 63.5C16.5132 50.9063 21.5219 38.8322 30.427 29.927C39.3322 21.0219 51.4063 16.0132 64 16V16ZM64 9.5C53.3198 9.5 42.8795 12.667 33.9992 18.6006C25.1189 24.5342 18.1976 32.9679 14.1105 42.8351C10.0234 52.7023 8.95399 63.5599 11.0376 74.0349C13.1212 84.5098 18.2642 94.1317 25.8162 101.684C33.3683 109.236 42.9901 114.379 53.4651 116.462C63.9401 118.546 74.7977 117.477 84.6649 113.389C94.5321 109.302 102.966 102.381 108.899 93.5008C114.833 84.6205 118 74.1802 118 63.5C118 49.1783 112.311 35.4432 102.184 25.3162C92.0568 15.1893 78.3217 9.5 64 9.5V9.5Z" fill="white"/>
<path d="M87.58 107.72C67.91 37.63 48.24 16.72 48.24 16.72" stroke="white" stroke-width="6.5" stroke-miterlimit="10"/>
<path d="M11.94 56.46C11.94 56.46 77.6 62.39 99.42 29.13" stroke="white" stroke-width="6.5" stroke-miterlimit="10"/>
<path d="M29.73 100C29.73 100 53.94 51.35 115.67 66.33" stroke="white" stroke-width="6.5" stroke-miterlimit="10"/>
</svg>
