<svg width="128" height="128" viewBox="0 0 128 128" fill="none" xmlns="http://www.w3.org/2000/svg">
<path d="M83 23C88.8348 23 94.4306 25.3179 98.5564 29.4437C102.682 33.5695 105 39.1652 105 45V83C105 88.8348 102.682 94.4306 98.5564 98.5564C94.4306 102.682 88.8348 105 83 105H45C39.1652 105 33.5695 102.682 29.4437 98.5564C25.3179 94.4306 23 88.8348 23 83V45C23 39.1652 25.3179 33.5695 29.4437 29.4437C33.5695 25.3179 39.1652 23 45 23H83ZM83 15H45C37.0508 15.0237 29.434 18.1921 23.813 23.813C18.1921 29.434 15.0237 37.0508 15 45V83C15.0237 90.9492 18.1921 98.566 23.813 104.187C29.434 109.808 37.0508 112.976 45 113H83C90.9492 112.976 98.566 109.808 104.187 104.187C109.808 98.566 112.976 90.9492 113 83V45C112.976 37.0508 109.808 29.434 104.187 23.813C98.566 18.1921 90.9492 15.0237 83 15V15Z" fill="white"/>
<path d="M90.14 32C89.0067 32 87.8989 32.3361 86.9566 32.9657C86.0143 33.5953 85.2799 34.4902 84.8462 35.5372C84.4125 36.5842 84.299 37.7364 84.5201 38.8479C84.7412 39.9594 85.2869 40.9804 86.0883 41.7817C86.8896 42.5831 87.9106 43.1288 89.0221 43.3499C90.1336 43.571 91.2858 43.4575 92.3328 43.0238C93.3798 42.5901 94.2747 41.8557 94.9043 40.9134C95.5339 39.9711 95.87 38.8633 95.87 37.73C95.87 36.9775 95.7218 36.2324 95.4338 35.5372C95.1459 34.842 94.7238 34.2104 94.1917 33.6783C93.6596 33.1462 93.028 32.7241 92.3328 32.4362C91.6376 32.1482 90.8925 32 90.14 32V32Z" fill="white"/>
<path d="M64.27 46.47C67.7676 46.468 71.1872 47.5035 74.0962 49.4454C77.0052 51.3874 79.2729 54.1485 80.6123 57.3795C81.9517 60.6105 82.3026 64.1662 81.6208 67.5967C80.9389 71.0273 79.2548 74.1784 76.7816 76.6516C74.3084 79.1248 71.1573 80.8089 67.7267 81.4908C64.2962 82.1726 60.7405 81.8217 57.5095 80.4823C54.2785 79.1429 51.5174 76.8752 49.5754 73.9662C47.6335 71.0573 46.598 67.6376 46.6 64.14C46.6079 59.4561 48.4721 54.9662 51.7842 51.6542C55.0962 48.3421 59.5861 46.4779 64.27 46.47V46.47ZM64.27 38.47C59.1927 38.4799 54.2322 39.9946 50.0156 42.8228C45.7989 45.651 42.5152 49.6657 40.5795 54.3596C38.6438 59.0534 38.143 64.2158 39.1403 69.1942C40.1376 74.1726 42.5883 78.7436 46.1827 82.3296C49.7771 85.9156 54.3538 88.3557 59.3346 89.3414C64.3153 90.3271 69.4764 89.8142 74.1657 87.8675C78.8551 85.9209 82.8621 82.6278 85.6804 78.4046C88.4988 74.1813 90.002 69.2173 90 64.14C89.9987 60.7643 89.3318 57.4219 88.0376 54.3042C86.7433 51.1864 84.8471 48.3545 82.4573 45.9703C80.0675 43.5861 77.2311 41.6964 74.1103 40.4094C70.9896 39.1225 67.6457 38.4634 64.27 38.47V38.47Z" fill="white"/>
</svg>
